# xmcd CD database file
#
# Track frame offsets:
#	150
#	23820
#	48525
#
# Disc length: 962 seconds
#
# Revision: 1
# Processed by: cddbd v1.5.2PL0 Copyright (c) Steve Scherf et al.
# Submitted via: CDex 1.70beta2
#
DISCID=1e03c003
DTITLE=THE ALFEE - まだ見ぬ君への愛の詩
DYEAR=1994
DGENRE=JPop
TTITLE0=まだ見ぬ君への愛の詩
TTITLE1=愛こそ力 -Power for Love-
TTITLE2=禁じられた夢の中で（オリジナル・カラオケ）
EXTD=YEAR: 1994
EXTT0=
EXTT1=
EXTT2=
PLAYORDER=
